<?xml version="1.0" standalone="no"?>
<!DOCTYPE svg PUBLIC "-//W3C//DTD SVG 1.1//EN" "http://www.w3.org/Graphics/SVG/1.1/DTD/svg11.dtd" >
<svg xmlns="http://www.w3.org/2000/svg">
<metadata>Generated by IcoMoon</metadata>
<defs>
<font id="Bublr" horiz-adv-x="1024">
<font-face units-per-em="1024" ascent="960" descent="-64" />
<missing-glyph horiz-adv-x="1024" />
<glyph unicode="&#x20;" horiz-adv-x="512" d="" />
<glyph unicode="&#xe801;" horiz-adv-x="1365" d="M1288.258 555.040c18.451 53.968-41.83 81.461-97.753 40.119-7.291 23.868-65.168 15.518-87.448-3.34-30.507-25.66-42.522-118.77-54.619-158.278l-2.688-10.020s-6.883-2.485-8.961-3.014c-11.853-2.933-28.511-8.431-32.992-0.326 10.264 70.26 35.72 136.284 60.851 208.254 8.146 22.809 24.235 56.656 19.225 68.508-9.164 21.791-78.284 9.979-97.142-11.69-14.989-17.188-27.249-66.39-38.897-107.365-10.997-38.612-22.524-81.909-29.815-116.448-1.792-8.594-3.625-18.329-5.132-28.267-15.38-9.077-33.248-17.435-51.928-24.081l-2.203-0.683c30.548 48.876 46.229 117.792 18.532 147.973-19.876 21.628-77.754 15.926-106.265-2.647 11.893 37.187 34.906 77.836 35.191 116.937-16.74 15.274-62.032 13.319-82.072-0.367s-34.458-61.584-45.292-98.119c-15.89-51.215-30.35-114.217-40.469-178.66l-1.035-8.007c-12.667 0-30.874-10.101-40.323-3.829 4.521 52.949 39.223 114.045 45.74 164.835-13.319 11.486-52.42 8.146-68.631 0.937-51.076-22.768-49.813-128.056-69.73-181.942-100.359-19.143 3.299 125.816-6.354 169.805-17.799 7.942-50.872 7.494-69.445-4.073-28.511-17.677-51.687-109.035-55.597-156.038-11.274-6.213-24.707-12.321-38.617-17.444l-2.113-0.681c26.76 42.482 41.382 107.202 21.709 139.909-15.518 25.782-71.278 28.878-110.379 4.358 9.001 40.038 34.987 77.713 32.91 119.136-18.288 12.626-67.368 11.771-88.67-8.39-12.626-11.934-22.157-45.699-30.385-72.011-15.283-44.444-30.313-100.487-41.937-157.768l-1.563-9.226c-5.173-27.33-12.83-66.431-5.621-82.031 7.861-16.903 39.508-20.365 62.032-20.61 3.096 0 5.987 0 8.676 0 31.935 1.734 61.775 5.803 90.79 12.085l-3.749-0.681c39.692 9.049 74.743 22.968 106.878 41.395l-1.875-0.991c3.503 1.996 6.68 4.073 9.653 5.824 20.365-36.657 76.206-39.305 131.885-8.716 26.393-27.126 95.757 2.81 130.337 19.713 19.669-10.073 42.909-15.976 67.528-15.976 0.602 0 1.204 0.004 1.805 0.011l-0.091-0.001c22.905 1.297 44.024 3.765 64.74 7.401l-3.278-0.476c47.918 8.045 90.843 23.697 129.606 45.81l-1.917-1.007c3.136 1.792 5.987 3.503 8.676 5.213 0.462-4.79 1.543-9.195 3.17-13.324l-0.115 0.332c13.278-31.647 83.701-23.461 131.844 5.376 8.146-20.365 50.546-15.355 67.409 0.367s24.438 58.448 35.802 92.295c5.539 16.699 10.508 35.476 15.966 50.261 6.313 17.066 9.083 34.621 22.524 42.278 21.18-3.584 0.244-42.604 16.292-50.302 40.852-6.069 75.595 19.225 85.33 47.695zM197.094 331.512c-3.299 31.444 18.166 81.175 29.815 116.407 90.666 38.531 44.152-136.691-29.815-116.407zM725.243 385.887c-3.299 31.444 18.166 81.175 29.815 116.407 90.666 38.531 43.989-136.691-29.815-116.448z" />
<glyph unicode="&#xe802;" horiz-adv-x="1365" d="M857.902 291.312c-10.671 0-22.035-6.761-22.035-19.388 0-9.246 7.454-14.256 16.292-14.256 9.775 0 21.343 6.924 21.343 19.388 0 0.032 0 0.070 0 0.108 0 7.851-6.364 14.215-14.215 14.215-0.488 0-0.97-0.025-1.445-0.073l0.060 0.005z" />
<glyph unicode="&#xe803;" horiz-adv-x="1365" d="M866.252 250.255h-44.803l-4.073-24.438h12.219l-5.499-30.222c-6.069-34.336 12.626-39.997 41.789-32.177l4.073 24.031c-8.146-1.588-14.948-1.955-13.156 8.716z" />
<glyph unicode="&#xe804;" horiz-adv-x="1365" d="M1170.1 192.989c0 19.551-20.813 24.031-37.879 24.438-4.073 0-6.028 1.792-6.028 4.643 0 4.969 5.499 6.232 10.508 6.395 0.205 0.005 0.447 0.008 0.689 0.008 2.339 0 4.618-0.255 6.811-0.739l-0.209 0.039-1.059-6.232h26.475l4.806 21.343c-8.513 7.291-22.402 10.142-34.661 10.142-20.813 0-42.156-8.146-45.862-29.367s16.007-27.045 33.44-27.737c5.865-0.367 9.246-2.851 9.246-5.499 0-5.336-5.499-7.128-12.993-7.128-3.191 0.231-6.156 0.869-8.952 1.865l0.236-0.073 1.263 6.558-27.9 0.529-4.073-24.723c8.35-5.336 23.298-8.716 37.716-8.553 24.601 0.122 48.428 10.264 48.428 34.091z" />
<glyph unicode="&#xe805;" horiz-adv-x="1365" d="M1031.209 159.753c0.155-0.001 0.339-0.002 0.523-0.002 16.033 0 30.783 5.491 42.472 14.695l-0.147-0.111-12.789 18.329c-6.686-4.468-14.909-7.13-23.754-7.13-0.155 0-0.309 0.001-0.463 0.002h0.024c-9.409 0-16.903 3.381-17.758 11.201h61.869c13.522 35.028-4.44 55.841-36.087 55.841-26.678 0-57.959-17.595-57.959-54.945-0.163-25.986 19.225-37.879 44.070-37.879zM1055.24 217.712h-32.177c4.643 14.256 33.602 14.948 32.014 0z" />
<glyph unicode="&#xe806;" horiz-adv-x="1365" d="M975.409 162.237l4.806 24.886c-8.716-1.588-13.522-1.751-18.329 6.598l-10.142 18.492 23.827 14.419h9.775l4.44 23.664h-44.803l-3.014-16.292-23.298-15.315 12.463 68.101h-45.17l-4.073-24.438h12.219c-5.865-33.602-11.567-66.879-17.799-100.115h32.706c1.955 9.612 3.381 19.184 4.969 29l9.612 5.539 8.35-16.536c9.857-20.161 23.746-21.587 43.459-18.003z" />
<glyph unicode="&#xe807;" horiz-adv-x="1365" d="M732.534 162.034l3.218 9.612c5.702-8.513 16.903-11.567 27.045-11.038 30.751 1.588 48.876 22.931 48.876 53.886 0 21.872-13.156 37.35-35.558 37.35-0.542 0.029-1.176 0.046-1.814 0.046-9.313 0-17.801-3.527-24.203-9.319l0.031 0.028 7.657 43.907h-44.274l-4.073-23.99h11.893l-17.799-100.482zM764.019 225.532c8.716 0 14.581-5.865 14.581-15.64 0-14.256-9.979-23.135-21.343-23.135-0.051-0.001-0.111-0.001-0.171-0.001-7.986 0-14.459 6.474-14.459 14.459 0 0.416 0.018 0.828 0.052 1.235l-0.004-0.053c0 11.038 7.82 23.135 21.343 23.135z" />
<glyph unicode="&#xe808;" horiz-adv-x="1365" d="M1304.102 659.635c-10.178-0.046-18.41-8.307-18.41-18.491 0 0 0 0 0 0v0c-0.052-0.519-0.081-1.121-0.081-1.73 0-10.168 8.242-18.41 18.41-18.41s18.41 8.242 18.41 18.41c0 0.609-0.030 1.211-0.087 1.805l0.006-0.075c0 0.048 0.001 0.106 0.001 0.163 0 10.094-8.16 18.283-18.244 18.328h-0.004zM1319.743 641.144c0-8.649-7.012-15.661-15.661-15.661s-15.661 7.012-15.661 15.661v0 0c0 8.649 7.012 15.661 15.661 15.661s15.661-7.012 15.661-15.661v0z" />
<glyph unicode="&#xe809;" horiz-adv-x="1365" d="M1312.818 644.728c0 4.073-3.136 6.11-7.413 6.11h-8.635v-18.41h4.48v5.784h2.851l4.073-5.784h5.417l-4.684 6.598c2.293 0.758 3.919 2.883 3.919 5.387 0 0.111-0.003 0.221-0.009 0.331l0.001-0.015zM1305.080 641.877h-3.869v5.091h3.869c1.914 0 3.136-0.937 3.136-2.525s-1.1-2.566-3.136-2.566z" />
<glyph unicode="&#xe80a;" horiz-adv-x="1365" d="M764.019 225.532c-13.522 0-21.343-12.219-21.343-23.135-0.031-0.354-0.048-0.766-0.048-1.182 0-7.986 6.474-14.459 14.459-14.459 0.060 0 0.12 0 0.18 0.001h-0.009c11.364 0 21.343 8.879 21.343 23.135 0.081 9.857-5.865 15.64-14.581 15.64z" />
<glyph unicode="&#xe80b;" horiz-adv-x="1365" d="M1305.080 646.968h-3.869v-5.091h3.869c2.037 0 3.136 1.018 3.136 2.525s-1.181 2.566-3.136 2.566z" />
<glyph unicode="&#xe80c;" horiz-adv-x="1365" d="M755.017 502.254c-11.649-35.232-33.114-84.963-29.815-116.407 73.844-20.243 120.521 154.979 29.815 116.407z" />
<glyph unicode="&#xe80d;" horiz-adv-x="1365" d="M1023.063 217.712h32.014c1.588 14.948-27.371 14.256-32.014 0z" />
<glyph unicode="&#xe80e;" horiz-adv-x="1365" d="M1005.631 943.729c-17.365 2.573-37.409 4.042-57.796 4.042-51.27 0-100.369-9.293-145.706-26.285l2.865 0.941c-49.99 17.913-107.665 28.267-167.758 28.267-185.558 0-348.058-98.723-437.842-246.51l-1.281-2.271c-115.516-35.907-197.939-141.841-197.939-267.027 0-127.334 85.276-234.75 201.834-268.255l1.97-0.485c92.221-144.563 251.761-239.053 433.37-239.053 118.341 0 227.311 40.122 314.050 107.506l-1.159-0.867c13.594-2.347 29.251-3.688 45.22-3.688 139.27 0 254.71 102.028 275.653 235.416l0.204 1.576c58.395 71.217 93.79 163.246 93.79 263.541 0 210.043-155.235 383.829-357.236 412.888l-2.237 0.264zM762.756 160.608c-10.142-0.529-21.343 2.485-27.045 11.038l-3.218-9.612h-29.163l17.799 100.482h-11.893l4.073 23.99h44.477l-7.617-43.907c6.371 5.764 14.859 9.291 24.172 9.291 0.638 0 1.272-0.017 1.902-0.049l-0.088 0.004c22.402 0 35.558-15.478 35.558-37.35-0.041-30.914-18.206-52.257-48.958-53.886zM865.722 163.459c-29.163-7.82-47.858-2.118-41.789 32.177l5.499 30.222h-12.219l4.073 24.438h44.803l-9.409-54.049c-1.792-10.671 5.173-10.305 13.156-8.716zM851.996 257.709c-8.716 0-16.292 4.969-16.292 14.256 0 12.626 11.364 19.388 22.035 19.388 0.378 0.036 0.818 0.056 1.263 0.056 7.851 0 14.215-6.364 14.215-14.215 0-0.020 0-0.040 0-0.059v0.003c0.122-12.586-11.404-19.428-21.22-19.428zM961.968 193.722c4.806-8.35 9.612-8.146 18.329-6.598l-4.806-24.886c-19.754-3.706-33.602-2.118-43.378 17.799l-8.35 16.536-9.612-5.539c-1.588-9.775-3.014-19.388-4.969-29h-33.154c6.232 33.236 11.893 66.513 17.799 100.115h-12.219l4.073 24.438h45.333l-12.463-68.101 23.298 15.315 3.014 16.292h44.803l-4.44-23.664h-9.775l-23.827-14.419zM1036.993 185.576c0.131-0.001 0.285-0.002 0.44-0.002 8.845 0 17.068 2.662 23.911 7.229l-0.157-0.099 12.789-18.329c-11.552-9.117-26.321-14.623-42.376-14.623-0.137 0-0.275 0-0.412 0.001h0.021c-24.723 0-44.111 11.893-44.111 37.879 0 37.35 31.281 54.945 57.959 54.945 31.647 0 49.609-20.813 36.087-55.841h-62.154c1.059-7.82 8.513-11.201 17.962-11.201zM1136.741 228.628c-4.969 0-10.508-1.426-10.508-6.395 0-2.851 2.118-4.44 6.028-4.643 17.066-0.529 37.879-4.969 37.879-24.438 0-23.827-23.827-33.969-48.876-33.969-14.419 0-29.326 3.218-37.716 8.553l4.073 24.723 27.9-0.529-1.263-6.558c2.56-0.923 5.526-1.561 8.606-1.786l0.11-0.006c7.454 0 12.993 1.792 12.993 7.128 0 2.647-3.381 5.173-9.246 5.499-17.433 0.733-36.983 6.761-33.44 27.737s25.090 29.367 45.862 29.367c12.219 0 26.149-2.851 34.661-10.142l-4.806-21.343h-26.475l1.059 6.232c-1.701 0.326-3.658 0.513-5.658 0.513-0.431 0-0.86-0.009-1.286-0.026l0.061 0.002zM1288.299 555.122c-9.735-28.511-44.477-53.764-85.208-47.573-16.292 7.739 4.684 46.718-16.292 50.302-13.441-7.657-16.292-25.212-22.524-42.278-5.458-14.785-10.386-33.562-15.966-50.261-11.242-33.847-18.654-76.288-35.802-92.295s-59.14-20.65-67.409-0.367c-48.184-28.837-118.566-37.024-131.844-5.376-1.512 3.798-2.593 8.203-3.039 12.793l-0.016 0.2c-2.729-1.711-5.58-3.421-8.676-5.213-36.847-21.107-79.773-36.759-125.395-44.482l-2.294-0.321c-17.438-3.159-38.557-5.627-60.006-6.857l-1.456-0.067c-0.51-0.006-1.111-0.010-1.714-0.010-24.619 0-47.859 5.903-68.382 16.371l0.854-0.395c-34.499-16.903-103.862-46.84-130.337-19.713-55.882-30.588-111.479-28.104-132.048 8.513-2.973-1.874-6.15-3.829-9.653-5.824-30.26-17.436-65.311-31.355-102.415-39.903l-2.587-0.502c-25.266-5.601-55.105-9.67-85.583-11.341l-1.457-0.064c-2.647 0-5.58 0-8.676 0-22.524 0-54.171 3.706-62.032 20.61-7.209 15.6 0.407 54.701 5.621 82.031 13.187 66.51 28.218 122.553 46.435 177.139l-2.935-10.144c8.146 26.312 17.758 60.077 30.385 72.011 21.302 20.365 70.382 21.017 88.67 8.39 2.077-41.423-23.909-79.098-32.91-119.136 39.101 24.438 94.861 21.424 110.379-4.358 19.673-32.584 5.051-97.427-21.709-139.909 16.023 5.804 29.457 11.912 42.329 18.922l-1.599-0.797c4.073 47.003 27.249 138.483 55.597 156.038 18.614 11.608 51.687 12.219 69.445 4.073 9.653-43.989-94.005-188.948 6.354-169.805 19.917 53.845 18.654 159.133 69.73 181.942 16.292 7.25 55.312 10.549 68.631-0.937-6.517-50.75-41.26-112.090-45.74-164.835 9.449-6.313 27.656 3.625 40.323 3.829 11.122 72.439 25.555 135.446 44.022 196.703l-2.6-10.036c10.834 36.657 25.253 84.393 45.292 98.119s65.168 15.681 82.072 0.367c-0.285-39.101-23.257-79.75-35.191-116.937 28.511 18.573 86.389 24.438 106.265 2.647 27.697-30.181 12.219-98.975-18.532-147.973 20.882 7.329 38.75 15.687 55.617 25.569l-1.487-0.805c1.507 9.979 3.34 19.713 5.132 28.267 7.331 34.539 18.858 77.836 29.815 116.448 11.69 40.975 23.909 90.177 38.897 107.365 18.858 21.669 87.977 33.48 97.142 11.69 4.969-11.893-11.282-45.74-19.225-68.508-25.131-71.97-50.587-137.994-60.851-208.254 4.562-8.146 21.139-2.607 32.992 0.326 2.118 0.529 8.961 3.014 8.961 3.014l2.688 10.020c12.219 39.508 24.153 132.618 54.619 158.278 22.442 18.858 80.157 27.208 87.448 3.34 56.045 41.504 116.285 13.848 97.834-40.119zM1322.512 641.348c0.052-0.519 0.081-1.121 0.081-1.73 0-10.168-8.242-18.41-18.41-18.41s-18.41 8.242-18.41 18.41c0 0.609 0.030 1.211 0.087 1.805l-0.006-0.075c-0.052 0.519-0.081 1.121-0.081 1.73 0 10.168 8.242 18.41 18.41 18.41s18.41-8.242 18.41-18.41c0-0.609-0.030-1.211-0.087-1.805l0.006 0.075z" />
<glyph unicode="&#xe80f;" horiz-adv-x="1365" d="M1304.102 657.11c-8.648-0.046-15.641-7.067-15.641-15.722 0-0.043 0-0.086 0.001-0.129v0.007c0-8.649 7.012-15.661 15.661-15.661s15.661 7.012 15.661 15.661v0 0c0.002 0.085 0.003 0.185 0.003 0.286 0 8.593-6.966 15.559-15.559 15.559-0.044 0-0.088 0-0.132-0.001h0.007zM1308.175 632.387l-4.073 5.784h-2.851v-5.784h-4.48v18.41h8.635c4.073 0 7.413-1.914 7.413-6.11 0.004-0.080 0.006-0.173 0.006-0.266 0-2.563-1.703-4.728-4.039-5.426l-0.040-0.010 4.684-6.598z" />
<glyph unicode="&#xe810;" horiz-adv-x="1365" d="M226.908 447.838c-11.608-35.232-33.114-84.963-29.815-116.407 73.966-20.202 120.48 155.019 29.815 116.407z" />
<glyph unicode="&#xe811;" d="M727.324 792.137c-58.88 8.249-116.053-2.276-165.547-27.022-77.084 19.627-161.564 11.947-237.511-27.876-53.476-27.876-95.858-68.267-126.293-115.484-14.222-3.413-28.16-8.818-41.813-15.929-91.307-47.787-126.578-160.427-79.076-251.733 25.6-49.209 69.973-81.92 119.751-94.436 92.444-145.351 282.453-197.973 437.76-116.907 5.12 2.56 10.24 5.404 15.076 8.533 31.858-3.129 65.138 2.844 95.573 18.773 39.253 20.48 67.129 54.044 81.351 92.444 74.809 41.813 129.991 117.191 142.791 208.782 21.902 155.591-86.471 298.951-242.062 320.853z" />
<glyph unicode="&#xe812;" d="M576.569 708.51c3.129-61.44-35.556-117.476-48.924-176.924 58.027 36.409 141.084 31.858 164.124-6.542 29.867-49.778 6.542-149.618-34.987-212.48-44.942-67.698-128-120.889-224.996-124.018-32.711-1.138-91.876 1.991-104.96 30.436-10.809 23.040 0.569 81.351 8.249 121.742 16.213 85.333 37.547 162.418 64.569 248.32 12.231 38.969 26.453 89.316 45.227 106.951 31.573 30.151 104.391 31.289 131.698 12.516zM502.613 452.226c-17.351-52.338-49.209-126.293-44.373-172.942 110.080-30.151 179.2 230.116 44.373 172.942z" />
<glyph unicode="&#xe820;" glyph-name="biker" d="M228.267 42.235c-103.289 0-187.2 84.089-187.2 187.2s84.089 187.2 187.2 187.2 187.2-84.089 187.2-187.2-83.911-187.2-187.2-187.2zM228.267 354.413c-68.8 0-124.8-56-124.8-124.8s56-124.978 124.8-124.978 124.8 56 124.8 124.8-56 124.978-124.8 124.978zM792.356 42.235c-103.289 0-187.2 84.089-187.2 187.2s84.089 187.2 187.2 187.2 187.2-83.911 187.2-187.2-84.089-187.2-187.2-187.2zM792.356 354.413c-68.8 0-124.8-56-124.8-124.8s56-124.8 124.8-124.8 124.8 56 124.8 124.8-56 124.8-124.8 124.8zM746.844 743.39c0-43.201-35.021-78.222-78.222-78.222s-78.222 35.021-78.222 78.222c0 43.201 35.021 78.222 78.222 78.222s78.222-35.021 78.222-78.222zM774.933 465.879c2.844 0 6.222 1.956 7.467 4.444l14.222 27.733c1.244 2.489 0 4.8-2.667 5.156l-109.156 13.333c-2.844 0.356-7.467 0.889-10.133 1.422 0 0-30.578 4.8-40.711 50.489-9.956 45.689-25.6 112.533-79.111 139.378 0 0-16.178 11.733-54.578-26.667s-155.022-123.733-172.8-174.933c-17.778-51.2 35.733-85.333 35.733-85.333 2.311-1.6 6.4-3.556 9.067-4.622 0 0 115.556-46.044 123.378-77.156 7.822-31.289 3.378-102.578-33.422-161.6l-25.422-45.689c-1.422-2.489-0.178-4.444 2.667-4.267l41.067 1.778c2.844 0.178 6.578 1.956 8.533 4.089 0 0 136 153.244 82.489 252.444 0 0-28.978 56.889-92.444 94.756 0 0-7.822 7.822 2.311 14.578 9.956 6.756 61.333 35.733 65.778 40.178s15.644 7.822 20.089-3.378c4.444-11.2 24.533-62.4 72.533-63.467 47.644-1.6 135.111-2.667 135.111-2.667z" />
<glyph unicode="&#xe821;" glyph-name="pay" d="M914.844 635.657c-47.644 0-80.711 8.711-81.422 8.889l-175.644 46.578c-3.022 0.711-6.222 1.067-10.133 1.067h-0.889c-4.089 0-7.822-0.533-11.378-1.6l-195.022-62.222h-139.911v108.089c0 12.089-10.133 21.867-22.578 21.867h-34.311c12.444 0 22.578-9.778 22.578-21.867v-108.089h-39.822v108.089c0 12.089-10.133 21.867-22.578 21.867h-145.067v-536h145.067c12.444 0 22.578 9.778 22.578 21.867v26.489h39.822v-26.489c0-12.089-10.133-21.867-22.578-21.867h34.311c12.444 0 22.578 9.778 22.578 21.867v26.489h60.622l7.467-19.733c8.356-22.222 33.956-33.778 56.889-25.6 19.556 6.933 30.933 25.956 28.622 45.333h17.956l15.644-41.244c8.533-22.4 33.956-33.778 56.889-25.6s34.844 32.889 26.311 55.111l-4.444 11.556h19.733c0.533 0 1.067 0.178 1.6 0.178 11.733-13.689 31.289-19.733 49.422-13.156 22.933 8.178 34.844 32.889 26.311 55.111l-39.289 103.822-1.778 4.8-3.378 8.711h-26.133v-122.667c0-3.556-3.2-6.578-6.756-6.578h-359.822v24.356c0 11.911-10.133 21.867-22.578 21.867h-45.156v164.8h45.156c12.444 0 22.578 9.778 22.578 21.867v64.533h360c3.556 0 6.756-3.022 6.756-6.578v-28.8h61.156c6.4 0 11.733-5.156 11.733-11.378s-5.156-11.378-11.733-11.378h-204.444c-14.4 0-27.378-7.822-35.022-19.911-4.267-6.756-6.756-14.933-6.933-23.822 0-11.733 4.444-22.044 11.378-29.689 7.644-8.533 18.489-13.867 30.4-14.044h169.6c8.711 0 12.8-6.4 14.933-9.067 6.578-8.178 14.4-17.067 24-26.311 48.889-46.4 70.222-49.6 133.511-50.311 46.4 0 93.689 17.778 128 51.022 2.133 2.133 5.156 3.378 8.356 3.378h53.333v214.4h-66.489z" />
<glyph unicode="&#xe822;" glyph-name="ride" d="M559.467 693.435c3.556-1.244 7.111-1.956 10.844-2.844l-7.822 88.711-51.556 19.022c-16-42.133 5.689-89.067 48.533-104.889zM665.6 741.435l-80.178 29.511 7.289-82.489c31.822 1.778 60.978 21.511 72.889 52.978zM634.667 884.19c-49.067 17.956-126.222 1.778-144.356-46.756l200-73.6c18.133 48.533-6.756 102.4-55.644 120.356zM228.978 410.235c-100.622-0.178-182.578-81.067-182.578-180.444s81.956-180.444 182.578-180.444c100.622 0 182.578 80.889 182.756 180.444 0 99.378-82.133 180.444-182.756 180.444zM228.978 103.39c-70.222 0.178-127.644 56.889-127.822 126.4 0.178 69.511 57.422 126.222 127.644 126.4v0c70.222-0.178 127.644-56.889 127.822-126.4 0-69.333-57.244-126.044-127.644-126.4zM597.867 229.79c0-99.378 81.956-180.267 182.756-180.267s182.756 80.889 182.756 180.444c0 99.378-81.956 180.267-182.756 180.444-100.8-0.178-182.756-81.244-182.756-180.622zM780.444 356.19v0c70.4-0.178 127.644-56.889 127.822-126.4-0.178-69.511-57.422-126.222-127.644-126.4-70.222 0.178-127.644 56.889-127.822 126.4 0.178 69.689 57.422 126.4 127.644 126.4zM504.711 153.346c20.622 0 37.511 16.533 37.511 36.978v182.578c0 9.956-3.911 19.2-11.022 26.311l-108.622 106.133 70.044 69.156 76.444-75.378c7.111-7.111 16.533-11.022 26.489-11.022h144.178c20.622 0 37.333 16.533 37.333 36.978 0 20.267-16.711 36.8-37.333 36.8h-128.711l-91.733 90.844c-6.933 6.933-16.711 10.844-26.489 10.844-9.956 0-19.556-3.911-26.489-10.844l-123.2-121.422c-7.111-6.933-10.844-16.178-10.844-26.133s3.911-19.2 11.022-26.133l124.089-121.422v-167.289c-0.178-20.267 16.711-36.978 37.333-36.978z" />
<glyph unicode="&#xe823;" glyph-name="return" d="M970.667 203.124h-43.733c0.178 1.956 0.533 3.378 0.533 5.511v365.689c0 30.4-18.667 56.178-45.156 66.844v8.889c27.733 10.844 47.467 38.044 47.467 69.867 0 41.244-33.422 74.844-74.489 74.844s-74.489-33.422-74.489-74.844c0-31.644 19.556-58.667 47.111-69.689v-9.067c-26.133-10.844-44.8-36.444-44.8-66.844v-365.511c0-1.956 0.356-3.556 0.533-5.511h-154.311c-1.6-20.089-17.6-35.911-37.333-35.911s-35.733 15.822-37.333 35.911h-234.667c-1.6-20.089-17.6-35.911-37.333-35.911s-35.733 15.822-37.333 35.911h-195.733c-13.689 0-24.889-10.311-24.889-23.111s11.2-23.111 24.889-23.111h921.067c13.689 0 24.889 10.311 24.889 23.111 0 12.622-11.022 22.933-24.889 22.933zM793.778 719.924c0 25.6 15.644 47.644 37.689 57.067 7.289 3.2 15.467 4.8 24 4.8v0 0c12.8 0 24.711-3.911 34.489-10.667 6.578-4.444 12.267-10.133 16.711-16.711 6.578-9.956 10.489-21.867 10.489-34.667s-3.911-24.711-10.489-34.667c-4.444-6.578-10.133-12.267-16.711-16.711-9.778-6.756-21.689-10.667-34.489-10.667v0 0c-8.533 0-16.533 1.778-24 4.8-22.044 9.6-37.689 31.644-37.689 57.422zM906.133 432.99c0-14.578-12.089-26.133-26.844-26.133h-47.289c-14.756 0-26.844 11.733-26.844 26.133v25.778c0 14.4 12.089 26.133 26.844 26.133h47.289c14.933 0 26.844-11.733 26.844-26.133v-25.778zM878.756 700.013c6.756 10.133 10.489 26.133 5.689 34.133-3.733 6.222-17.067 6.933-26.489 1.067 2.133 9.6 8.356 18.489 7.822 28.444-4.267 3.022-16.178 2.844-21.156-1.956-3.022-2.844-5.333-10.844-7.289-17.244-4.267-13.867-7.822-26.311-10.311-40-1.244-6.4-3.022-15.822-1.422-19.556 2.133-4.622 11.556-4.978 16.889-4.8 15.822 0.533 29.156 9.067 36.267 19.911zM854.044 722.59c21.689 9.244 10.489-32.711-7.111-27.733-0.711 7.467 4.267 19.2 7.111 27.733zM264.533 382.857v-181.156c0-10.133 7.644-18.311 17.067-18.311s17.067 8.178 17.067 18.311v181.156c0 10.133-7.644 18.311-17.067 18.311s-17.067-8.178-17.067-18.311zM164.089 505.524c1.6-0.889 3.2-1.422 5.156-1.6l38.933-4.444 1.067-1.067c0 0 0.178-0.178 0.178-0.178 1.067-1.067 2.311-2.311 3.733-3.556 0.711-0.711 1.778-1.422 2.667-2.133 0.711-0.533 1.422-1.244 2.311-1.778 1.244-0.889 2.667-1.778 4.089-2.844 0.533-0.356 1.244-0.711 1.778-1.244 1.6-1.067 3.378-1.956 5.333-3.022 0.533-0.356 1.067-0.533 1.6-0.889 1.956-1.067 4.267-1.956 6.4-3.022 0.533-0.178 1.067-0.356 1.422-0.533 2.489-0.889 4.978-1.778 7.644-2.667 0.533-0.178 0.889-0.178 1.422-0.356 2.844-0.889 5.689-1.6 8.889-2.133 0.356 0 0.711-0.178 1.067-0.178 3.378-0.533 6.756-1.067 10.311-1.422v0 12.267c0 7.467 6.044 13.511 13.511 13.511s13.511-6.044 13.511-13.511v-12.267c3.556 0.356 6.933 0.889 10.311 1.422 0.356 0 0.711 0.178 1.067 0.178 3.2 0.533 6.044 1.422 8.889 2.133 0.356 0.178 0.889 0.178 1.422 0.356 2.667 0.889 5.156 1.778 7.644 2.667 0.533 0.178 1.067 0.356 1.422 0.533 2.311 0.889 4.444 1.956 6.578 3.022 0.533 0.356 1.067 0.533 1.6 0.889 1.956 1.067 3.733 1.956 5.333 3.022 0.711 0.356 1.244 0.711 1.778 1.244 1.422 0.889 2.844 1.778 4.089 2.844 0.889 0.533 1.6 1.244 2.311 1.778 0.889 0.711 1.778 1.422 2.667 2.133 1.422 1.244 2.844 2.489 3.911 3.733l1.067 1.067 38.756 4.444c1.778 0.178 3.556 0.711 5.156 1.6s2.844 1.956 3.911 3.378c2.133 2.667 3.378 6.222 2.844 9.956-0.178 1.778-0.711 3.378-1.422 4.8-2.311 4.267-6.933 7.289-12.089 7.289-0.533 0-0.889 0-1.422 0l-44.089-4.978c-1.956-0.178-3.733-0.889-5.333-1.778-1.6-1.067-3.022-2.311-4.267-3.911-0.178-0.178-1.244-1.6-3.378-3.556s-5.333-4.622-9.6-7.111c-6.4-3.911-15.467-7.644-27.556-9.244-3.911-0.533-8.356-0.889-12.978-0.889-0.533-0.178-1.067-0.178-1.6-0.356h-1.067c-0.533 0-1.067 0.178-1.956 0.533-18.667 0-31.822 5.156-40.356 10.311-6.4 3.911-10.311 7.822-11.911 9.778-0.533 0.711-0.889 1.067-0.889 1.067-2.311 3.022-5.867 5.156-9.422 5.511l-44.089 4.978c-7.644 0.711-14.222-4.622-15.111-11.911-0.711-6.044 2.133-11.2 6.756-13.867zM295.111 434.235c0-7.467-6.044-13.511-13.511-13.511s-13.511 6.044-13.511 13.511v5.156c-2.311-0.533-4.267-1.244-6.4-1.956-1.067-0.356-2.311-0.711-3.378-1.244-1.778-0.889-3.556-1.778-5.333-2.844-1.067-0.711-2.311-1.244-3.378-2.133-1.6-1.067-3.022-2.311-4.267-3.378-1.067-0.889-2.133-1.956-3.2-2.844-1.244-1.244-2.311-2.489-3.378-3.911-1.067-1.244-1.956-2.489-2.844-3.733s-1.778-2.667-2.489-3.911c-0.889-1.6-1.6-3.2-2.311-4.8-0.533-1.244-1.067-2.489-1.6-3.733-0.711-1.956-1.244-3.911-1.6-5.867-0.178-1.067-0.533-2.133-0.711-3.2-0.533-3.022-0.889-6.222-0.889-9.244v-99.911c0-5.511 3.378-10.311 8.178-12.444 1.6-0.711 3.378-1.067 5.333-1.067 5.511 0 10.311 3.378 12.444 8.178 0.711 1.6 1.067 3.378 1.067 5.333v99.911c0 4.444 1.6 11.2 5.689 16.711 4.089 5.689 10.667 10.311 20.622 10.311 0.533 0.178 1.067 0.356 1.6 0.356l0.711 0.178 0.711-0.178c0.533 0 1.067-0.178 2.133-0.533 12.089 0 19.022-7.111 22.578-14.578 1.422-3.022 2.311-6.044 2.667-8.711 0.178-1.422 0.356-2.489 0.356-3.733v-99.911c0-3.733 1.6-7.111 3.911-9.6 2.489-2.489 5.867-3.911 9.6-3.911 1.956 0 3.733 0.356 5.333 1.067 4.8 2.133 8.178 6.933 8.178 12.444v99.911c0 0 0 0 0 0.178 0 3.022-0.356 6.044-0.889 9.067-0.178 1.067-0.533 2.133-0.711 3.2-0.533 1.956-0.889 3.911-1.6 5.867-0.533 1.244-1.067 2.489-1.6 3.733-0.711 1.6-1.422 3.2-2.311 4.8-0.711 1.244-1.6 2.489-2.311 3.733-0.889 1.422-1.956 2.667-3.022 3.911s-2.133 2.489-3.2 3.556c-1.067 1.067-2.311 2.133-3.378 3.2-1.244 1.067-2.667 2.311-4.089 3.2-1.244 0.889-2.489 1.6-3.911 2.311-1.6 0.889-3.2 1.778-4.8 2.667-1.422 0.533-2.844 1.067-4.267 1.422-1.778 0.533-3.556 1.244-5.511 1.778v-4.8zM284.267 472.101c-0.889 0.356-1.422 0.356-1.956 0.533l-0.533 0.178-0.533-0.178c-0.533 0-1.067-0.178-1.6-0.356l-0.356-0.178c-3.911 0-7.467 0.356-11.022 0.533v0-33.244c3.378 0.711 6.933 1.244 10.667 1.244 1.244-0.356 1.6-0.533 2.133-0.533l0.711-0.178 0.711 0.178c0.533 0 1.067 0.178 1.422 0.356 0.178 0 0.178 0 0.356 0 3.911 0 7.467-0.533 11.022-1.244v33.422c-3.733-0.356-7.289-0.533-11.022-0.533zM268.089 434.235c0-7.467 6.044-13.511 13.511-13.511s13.511 6.044 13.511 13.511v4.978c-3.556 0.711-7.111 1.244-11.022 1.244 0 0-0.178 0-0.356 0-0.533-0.178-1.067-0.178-1.422-0.356l-0.711-0.178-0.711 0.178c-0.533 0-1.067 0.178-2.133 0.533-3.733 0-7.289-0.533-10.667-1.244v0-5.156zM574.044 382.857v-181.156c0-10.133 7.644-18.311 17.067-18.311s17.067 8.178 17.067 18.311v181.156c0 10.133-7.644 18.311-17.067 18.311s-17.067-8.178-17.067-18.311zM467.2 513.524c1.067-3.378 3.2-6.222 6.4-8 1.6-0.889 3.2-1.422 5.156-1.6l38.756-4.267 1.067-1.067c1.067-1.067 2.489-2.311 3.911-3.733 0.711-0.711 1.778-1.422 2.667-2.133 0.711-0.533 1.422-1.244 2.311-1.778 1.244-0.889 2.667-1.778 4.089-2.844 0.533-0.356 1.244-0.711 1.778-1.244 1.6-1.067 3.378-1.956 5.333-3.022 0.533-0.356 1.067-0.533 1.6-0.889 1.956-1.067 4.267-1.956 6.4-3.022 0.533-0.178 1.067-0.356 1.422-0.533 2.489-0.889 4.978-1.778 7.644-2.667 0.356-0.178 0.889-0.178 1.422-0.356 2.844-0.889 5.689-1.6 8.889-2.133 0.356 0 0.711-0.178 1.067-0.178 3.378-0.533 6.756-1.067 10.311-1.422v12.267c0 7.467 6.044 13.511 13.511 13.511s13.511-6.044 13.511-13.511v-12.267c3.556 0.356 7.111 0.889 10.311 1.422 0.356 0 0.711 0.178 1.067 0.178 3.2 0.533 6.044 1.422 8.889 2.133 0.356 0.178 0.889 0.178 1.244 0.356 2.667 0.889 5.333 1.778 7.644 2.667 0.533 0.178 0.889 0.356 1.422 0.533 2.311 0.889 4.444 1.956 6.578 3.022 0.533 0.356 1.067 0.533 1.6 0.889 1.956 1.067 3.733 1.956 5.333 3.022 0.533 0.356 1.244 0.711 1.778 1.244 1.422 0.889 2.844 1.956 4.089 2.844 0.711 0.533 1.422 1.244 2.311 1.778 0.889 0.711 1.956 1.422 2.667 2.133 1.422 1.244 2.844 2.489 3.911 3.733l1.067 1.067 38.756 4.267c1.778 0.178 3.556 0.711 5.156 1.6s2.844 1.956 3.911 3.378c2.133 2.667 3.2 6.222 2.844 9.956-0.533 5.156-4.089 9.244-8.711 11.022-1.6 0.533-3.2 0.889-4.978 0.889-0.178 0-0.533 0-0.711 0s-0.533 0-0.711 0l-44.089-4.978c-1.956-0.178-3.733-0.889-5.333-1.778-1.6-1.067-3.022-2.311-4.267-3.911-0.178-0.178-1.244-1.6-3.378-3.556s-5.333-4.622-9.6-7.111c-6.4-3.911-15.467-7.644-27.556-9.244-3.911-0.533-8.356-0.889-12.978-0.889-0.533-0.178-1.067-0.178-1.6-0.356h-1.067c-0.533 0-1.067 0.178-1.956 0.533-9.244 0-17.244 1.244-24 3.2s-12.089 4.444-16.356 7.111c-4.267 2.667-7.467 5.156-9.6 7.289-2.133 1.956-3.2 3.378-3.378 3.556-2.311 3.022-5.867 5.156-9.422 5.511l-44.089 4.978c-3.733 0.356-7.289-0.711-9.956-3.022-2.667-2.133-4.622-5.333-4.978-8.889 0.178-2.133 0.356-3.911 0.889-5.689zM604.444 434.235c0-7.467-6.044-13.511-13.511-13.511s-13.511 6.044-13.511 13.511v5.156c-2.311-0.533-4.267-1.244-6.4-1.956-1.067-0.356-2.311-0.711-3.378-1.244-1.778-0.889-3.556-1.778-5.333-2.844-1.067-0.711-2.311-1.244-3.378-2.133-1.6-1.067-3.022-2.311-4.267-3.556-1.067-0.889-2.133-1.956-3.2-2.844-1.244-1.244-2.311-2.489-3.378-3.911-1.067-1.244-1.956-2.489-2.844-3.733s-1.778-2.667-2.489-3.911c-0.889-1.6-1.6-3.022-2.311-4.622-0.533-1.244-1.244-2.489-1.6-3.911-0.711-1.956-1.244-3.911-1.6-5.867-0.178-1.067-0.533-2.133-0.889-3.2-0.533-3.022-0.889-6.044-0.889-9.067 0 0 0 0 0-0.178v-99.911c0-7.467 6.044-13.511 13.511-13.511 1.778 0 3.556 0.356 5.333 1.067 4.8 2.133 8.178 6.933 8.178 12.444v99.911c0 8.711 6.222 26.844 26.133 27.2v0c0.533 0.178 1.067 0.356 1.6 0.356l0.711 0.178 0.711-0.178c0.533 0 1.067-0.178 2.133-0.533v0c2.489 0 4.622-0.356 6.578-0.711 8-2.133 13.156-7.822 15.822-13.689 1.422-3.022 2.311-6.044 2.667-8.711 0.178-1.422 0.356-2.489 0.356-3.733v-99.911c0-1.778 0.356-3.556 1.067-5.333 2.133-4.8 6.756-8.178 12.444-8.178 7.467 0 13.511 6.044 13.511 13.511v99.911c0 3.022-0.356 6.044-0.889 9.244-0.178 1.067-0.533 2.133-0.711 3.022-0.533 1.956-1.067 3.911-1.6 5.867-0.533 1.244-1.067 2.489-1.6 3.733-0.711 1.6-1.422 3.2-2.311 4.8-0.711 1.244-1.6 2.489-2.311 3.733-0.889 1.422-1.956 2.667-3.022 3.911s-2.133 2.489-3.2 3.556c-1.067 1.067-2.311 2.133-3.378 3.2-1.244 1.067-2.667 2.311-4.089 3.2-1.244 0.889-2.489 1.6-3.911 2.311-1.6 0.889-3.2 1.778-4.8 2.667-1.422 0.533-2.844 0.889-4.267 1.422-1.956 0.533-3.733 1.422-5.689 1.778v-4.8zM591.644 472.457l-0.533 0.178-0.533-0.178c-0.533 0-1.067-0.178-1.6-0.356l-0.356-0.178c-3.911 0-7.467 0.356-11.022 0.533v-33.244c3.378 0.711 6.933 1.067 10.667 1.067 1.244-0.356 1.778-0.533 2.133-0.533l0.711-0.178 0.711 0.178c0.533 0 1.067 0.178 1.422 0.356 0.178 0 0.178 0 0.356 0 3.911 0 7.467-0.533 11.022-1.244v33.778c-3.556-0.356-7.111-0.533-10.844-0.533-1.067 0.178-1.6 0.356-2.133 0.356z" />
<glyph unicode="&#xe824;" glyph-name="repeat" d="M177.244 357.435c9.956-9.956 23.289-15.467 37.333-15.467s27.378 5.511 37.333 15.467l107.556 107.556c15.111 15.111 19.556 37.689 11.378 57.422s-27.378 32.533-48.711 32.533h-34.489v112c0 17.778 14.4 32.178 32.178 32.178h390.222c17.778 0 32.178-14.4 32.178-32.178 0-40.356 32.711-73.244 73.244-73.244s73.244 32.711 73.244 73.244c0 98.489-80 178.667-178.489 178.667h-390.4c-98.489 0-178.489-80.178-178.489-178.667v-112h-34.489c-21.333 0-40.533-12.8-48.711-32.533s-3.733-42.311 11.378-57.422l107.733-107.556zM886.4 341.968h34.489c0.178 0 0.356 0 0.533 0 29.156 0 52.622 23.644 52.622 52.622 0 16.889-7.822 31.822-20.089 41.422l-103.467 103.467c-20.622 20.622-53.867 20.622-74.489 0l-107.556-107.556c-15.111-15.111-19.556-37.689-11.378-57.422s27.378-32.533 48.711-32.533h34.489v-112c0-17.778-14.4-32.178-32.178-32.178h-390.4c-17.778 0-32.178 14.4-32.178 32.178 0 40.356-32.711 73.244-73.244 73.244s-73.244-32.711-73.244-73.244c0-98.489 80-178.667 178.489-178.667h390.222c98.489 0 178.489 80.178 178.489 178.667v112z" />
<glyph unicode="&#xe825;" horiz-adv-x="853" d="M215.704 799.153h426.667v-726.519h-426.667v726.519z" />
<glyph unicode="&#xe826;" horiz-adv-x="853" d="M635.496 820.487h-417.659c-14.222 0-25.837-11.615-25.837-26.074v-711.111c0-14.459 11.615-26.074 25.837-26.074h417.422c14.222 0 25.837 11.615 25.837 26.074v711.111c0.237 14.459-11.378 26.074-25.6 26.074zM385.422 785.405h85.807c2.37 0 4.267-1.896 4.267-4.267v-5.452c0-2.37-1.896-4.267-4.267-4.267h-86.044c-2.37 0-4.267 1.896-4.267 4.267v5.452c0.237 2.37 2.133 4.267 4.504 4.267zM428.326 77.85c-18.252 0-33.185 14.933-33.185 33.185s14.696 33.185 33.185 33.185c18.252 0 33.185-14.933 33.185-33.185s-14.933-33.185-33.185-33.185zM629.807 169.346h-406.281v570.548h406.044v-570.548z" />
<glyph unicode="&#xe827;" horiz-adv-x="853" d="M428.326 646.738c-63.052 0-114.015-51.2-114.015-114.489s50.963-114.489 114.015-114.489c63.052 0 114.015 51.2 114.015 114.489s-50.963 114.489-114.015 114.489zM428.326 440.042c-50.726 0-91.97 41.244-91.97 92.444 0 50.963 41.244 92.444 91.97 92.444s91.97-41.244 91.97-92.444c0-51.2-41.244-92.444-91.97-92.444z" />
<glyph unicode="&#xe828;" horiz-adv-x="853" d="M469.807 533.198c10.193 4.978 12.8 14.933 12.8 24.415 0 24.178-18.963 35.319-42.193 35.319h-59.259v-126.104h59.733c21.096 0.237 44.8 8.533 44.8 36.978 0 11.378-5.215 22.993-15.881 29.393zM412.681 561.405h24.178c5.926 0 9.244-4.030 9.244-9.007s-3.319-8.533-9.481-8.533h-23.704v17.541zM440.889 494.798h-28.207v24.652h28.207c8.296 0 12.563-5.452 12.563-12.326 0-7.348-4.030-12.326-12.563-12.326z" />
<glyph unicode="&#xe829;" horiz-adv-x="853" d="M321.185 339.538c-3.319-3.319-9.244-4.978-13.511-4.978-9.007 0-17.067 6.163-17.067 16.83 0 11.141 7.822 17.541 17.541 17.541 4.030 0 8.533-0.711 12.563-4.030l10.667 12.326c-6.637 7.111-14.459 9.244-24.178 9.244-19.437 0-36.267-12.563-36.267-35.081 0-24.178 17.067-34.844 36.504-34.844 8.533 0 18.015 2.37 26.074 10.193l-12.326 12.8z" />
<glyph unicode="&#xe82a;" horiz-adv-x="853" d="M390.163 386.235l-16.593-42.667-16.83 42.667h-22.044l28.207-65.659-13.985-32.474h21.333l41.244 98.133h-21.333z" />
<glyph unicode="&#xe82b;" horiz-adv-x="853" d="M464.119 339.538c-3.319-3.319-9.244-4.978-13.511-4.978-9.007 0-17.067 6.163-17.067 16.83 0 11.141 7.822 17.541 17.541 17.541 4.030 0 8.533-0.711 12.563-4.030l10.667 12.326c-6.637 7.111-14.459 9.244-24.178 9.244-19.437 0-36.267-12.563-36.267-35.081 0-24.178 17.067-34.844 36.504-34.844 8.533 0 18.015 2.37 26.074 10.193l-12.326 12.8z" />
<glyph unicode="&#xe82c;" horiz-adv-x="853" d="M486.163 410.887v-94.578h21.096v94.578h-21.096z" />
<glyph unicode="&#xe82d;" horiz-adv-x="853" d="M554.43 385.998c-21.807 0-35.319-14.222-35.319-34.607 0-21.333 13.274-35.556 37.452-35.556 9.956 0 21.57 2.844 28.681 9.956l-10.904 12.089c-4.741-4.030-12.089-5.215-17.304-5.215-10.904 0-17.067 5.215-18.015 11.852h49.067c3.793 27.259-11.141 41.481-33.659 41.481zM538.785 358.264c1.896 6.637 7.822 10.667 15.644 10.667 8.059 0 15.407-3.319 15.881-10.667h-31.526z" />
<glyph unicode="&#xe900;" glyph-name="play" horiz-adv-x="1201" d="M594.135 831.029c-213.719 0-387.394-173.827-387.394-387.394s173.827-387.394 387.394-387.394c213.567 0 387.394 173.827 387.394 387.394s-173.675 387.394-387.394 387.394zM594.135 150.132c-161.844 0-293.503 131.659-293.503 293.503s131.659 293.503 293.503 293.503c161.844 0 293.503-131.659 293.503-293.503s-131.659-293.503-293.503-293.503zM758.254 472.454l-220.848 127.564c-10.314 5.916-23.056 5.916-33.37 0s-16.685-16.988-16.685-28.819v-254.976c0-11.983 6.371-22.904 16.685-28.819 5.157-3.034 10.921-4.399 16.685-4.399s11.528 1.517 16.685 4.399l220.848 127.412c10.314 5.916 16.685 16.988 16.685 28.819s-6.371 22.904-16.685 28.819z" />
<glyph unicode="&#xe901;" glyph-name="facebook" d="M376.411 752.533c0-25.713 0-140.946 0-140.946h-103.329v-172.373h103.329v-512.357h212.133v512.357h142.374c0 0 13.333 82.615 19.761 173.087-18.571 0-161.421 0-161.421 0s0 100.233 0 117.852c0 17.618 23.094 41.427 45.95 41.427s70.949 0 115.709 0c0 23.57 0 104.519 0 179.515-59.521 0-127.375 0-157.136 0-222.609-0.238-217.371-172.849-217.371-198.562z" />
<glyph unicode="&#xe902;" glyph-name="twitter" d="M641.472 852.585c-92.48-33.664-150.912-120.448-144.288-215.424l2.24-36.64-36.992 4.48c-134.624 17.184-252.288 75.52-352.192 173.536l-48.832 48.608-12.576-35.904c-26.624-80.032-9.6-164.576 45.856-221.44 29.6-31.424 22.912-35.904-28.096-17.184-17.76 5.952-33.312 10.464-34.784 8.224-5.152-5.248 12.576-73.312 26.624-100.256 19.232-37.44 58.432-74.048 101.376-95.776l36.256-17.184-42.912-0.736c-41.408 0-42.912-0.736-38.464-16.48 14.784-48.608 73.248-100.256 138.336-122.688l45.856-15.68-39.936-23.936c-59.168-34.464-128.736-53.888-198.304-55.328-33.28-0.736-60.64-3.744-60.64-6.016 0-7.456 90.272-49.312 142.784-65.824 157.6-48.608 344.8-27.648 485.376 55.36 99.904 59.104 199.744 176.544 246.4 290.272 25.184 60.544 50.304 171.296 50.304 224.352 0 34.432 2.24 38.912 43.648 80.032 24.448 23.936 47.36 50.112 51.808 57.6 7.424 14.24 6.624 14.24-31.072 1.504-62.88-22.464-71.776-19.456-40.672 14.208 22.912 23.936 50.304 67.328 50.304 80.032 0 2.24-11.072-1.472-23.68-8.224-13.312-7.424-42.912-18.656-65.12-25.376l-39.936-12.736-36.256 24.704c-20 13.44-48.064 28.416-62.88 32.896-37.76 10.464-95.488 8.992-129.536-2.976z" />
<glyph unicode="&#xe903;" glyph-name="instagram" d="M509.291 649.256c-126.42 0-231.168-102.942-231.168-231.168s102.942-231.168 231.168-231.168 231.168 104.748 231.168 231.168-104.748 231.168-231.168 231.168zM509.291 269.996c-81.27 0-148.092 66.822-148.092 148.092s66.822 148.092 148.092 148.092 148.092-66.822 148.092-148.092-66.822-148.092-148.092-148.092zM801.862 654.674c0-28.925-23.449-52.374-52.374-52.374s-52.374 23.449-52.374 52.374c0 28.925 23.449 52.374 52.374 52.374s52.374-23.449 52.374-52.374zM884.938 790.123c-46.956 48.762-113.778 74.046-189.63 74.046h-372.035c-157.122 0-261.869-104.748-261.869-261.869v-370.229c0-77.658 25.284-144.48 75.852-193.242 48.762-46.956 113.778-70.434 187.824-70.434h368.423c77.658 0 142.674 25.284 189.63 70.434 48.762 46.956 74.046 113.778 74.046 191.436v372.035c0 75.852-25.284 140.868-72.24 187.824zM877.714 230.264c0-55.986-19.866-101.136-52.374-131.838s-77.658-46.956-131.838-46.956h-368.423c-54.18 0-99.33 16.254-131.838 46.956-32.508 32.508-48.762 77.658-48.762 133.644v370.229c0 54.18 16.254 99.33 48.762 131.838 30.702 30.702 77.658 46.956 131.838 46.956h372.035c54.18 0 99.33-16.254 131.838-48.762 30.702-32.508 48.762-77.658 48.762-130.032v-372.035z" />
<glyph unicode="&#xe904;" glyph-name="youtube" d="M806.684 202.199h-55.751v32.996c0 14.791 11.378 26.169 26.169 26.169h3.413c14.791 0 26.169-11.378 26.169-26.169v-32.996zM596.196 271.604c-14.791 0-26.169-9.102-26.169-21.618v-159.289c0-11.378 11.378-21.618 26.169-21.618s26.169 9.102 26.169 21.618v159.289c0 12.516-11.378 21.618-26.169 21.618zM938.667 360.35v-301.511c0-72.818-62.578-131.982-139.947-131.982h-573.44c-77.369 0-139.947 59.164-139.947 131.982v301.511c0 72.818 62.578 131.982 139.947 131.982h574.578c76.231 0 138.809-59.164 138.809-131.982zM262.827 25.844v318.578h71.68v46.649h-190.009v-46.649h59.164v-318.578h59.164zM476.729 296.635h-59.164v-169.529c0-25.031 1.138-36.409 0-40.96-4.551-13.653-26.169-27.307-35.271-1.138-1.138 4.551 0 18.204 0 40.96v170.667h-59.164v-168.391c0-26.169-1.138-45.511 0-53.476 1.138-15.929 1.138-32.996 14.791-43.236 26.169-19.342 77.369 3.413 91.022 30.72v-35.271h47.787v269.653zM666.738 102.075v141.084c0 53.476-39.822 86.471-95.573 42.098v104.676h-59.164v-362.951l48.924 1.138 4.551 22.756c61.44-56.889 101.262-17.067 101.262 51.2zM852.196 120.279h-44.373c0-2.276 0-3.413 0-5.689v-25.031c0-13.653-11.378-23.893-23.893-23.893h-9.102c-13.653 0-23.893 11.378-23.893 23.893v64.853h102.4v38.684c0 28.444-1.138 55.751-3.413 71.68-6.827 51.2-78.507 59.164-114.916 32.996-11.378-7.964-19.342-19.342-25.031-32.996-4.551-14.791-7.964-34.133-7.964-60.302v-84.196c0-139.947 170.667-120.604 150.187 0zM623.502 578.804c3.413-7.964 7.964-13.653 14.791-18.204s14.791-6.827 23.893-6.827c9.102 0 15.929 2.276 22.756 6.827s12.516 11.378 17.067 21.618l-1.138-22.756h65.991v281.031h-52.338v-219.591c0-11.378-10.24-21.618-21.618-21.618s-21.618 10.24-21.618 21.618v219.591h-54.613v-190.009c0-23.893 0-39.822 1.138-48.924 1.138-7.964 3.413-15.929 5.689-22.756zM423.253 736.955c0 27.307 2.276 47.787 6.827 63.716 4.551 14.791 12.516 27.307 23.893 36.409s26.169 13.653 44.373 13.653c14.791 0 28.444-3.413 39.822-9.102s19.342-13.653 25.031-22.756c5.689-9.102 10.24-19.342 12.516-29.582s3.413-25.031 3.413-45.511v-71.68c0-26.169-1.138-45.511-3.413-58.027s-6.827-23.893-12.516-34.133c-6.827-10.24-14.791-18.204-25.031-23.893-10.24-4.551-22.756-7.964-36.409-7.964-14.791 0-27.307 2.276-38.684 6.827-10.24 4.551-18.204 11.378-23.893 19.342-5.689 9.102-10.24 19.342-12.516 31.858s-3.413 30.72-3.413 55.751v75.093zM475.591 625.453c0-15.929 11.378-28.444 26.169-28.444s26.169 12.516 26.169 28.444v150.187c0 15.929-11.378 28.444-26.169 28.444s-26.169-12.516-26.169-28.444v-150.187zM292.409 550.359h62.578v216.178l73.956 184.32h-68.267l-38.684-137.671-40.96 137.671h-67.129l78.507-185.458v-215.040z" />
<glyph unicode="&#xe905;" glyph-name="linkedin" d="M272.571 593.714v-566.286h-188.571v566.286h188.571zM284.571 768.571q0.571-41.714-28.857-69.714t-77.429-28h-1.143q-46.857 0-75.429 28t-28.571 69.714q0 42.286 29.429 70t76.857 27.714 76-27.714 29.143-70zM950.857 352v-324.571h-188v302.857q0 60-23.143 94t-72.286 34q-36 0-60.286-19.714t-36.286-48.857q-6.286-17.143-6.286-46.286v-316h-188q1.143 228 1.143 369.714t-0.571 169.143l-0.571 27.429h188v-82.286h-1.143q11.429 18.286 23.429 32t32.286 29.714 49.714 24.857 65.429 8.857q97.714 0 157.143-64.857t59.429-190z" />
<glyph unicode="&#xe911;" glyph-name="hamburger-menu" d="M128 630.857h768c35.328 0 64 28.672 64 64s-28.672 64-64 64h-768c-35.328 0-64-28.672-64-64s28.672-64 64-64zM896 502.857h-768c-35.328 0-64-28.672-64-64s28.672-64 64-64h768c35.328 0 64 28.672 64 64s-28.672 64-64 64zM896 246.857h-768c-35.328 0-64-28.672-64-64s28.672-64 64-64h768c35.328 0 64 28.672 64 64s-28.672 64-64 64z" />
<glyph unicode="&#xe912;" glyph-name="close" d="M558.688 438.409l263.648 262.208c12.64 12.512 12.64 32.768 0 45.248-12.608 12.512-33.088 12.512-45.696 0l-263.424-261.984-265.856 265.888c-12.608 12.64-33.088 12.64-45.696 0-12.608-12.672-12.608-33.184 0-45.824l265.664-265.696-266.624-265.152c-12.608-12.512-12.608-32.768 0-45.248 12.608-12.512 33.088-12.512 45.696 0l266.4 264.928 264.8-264.832c12.608-12.64 33.088-12.64 45.696 0 12.608 12.672 12.608 33.184 0 45.824l-264.608 264.64z" />
</font>
</defs>
</svg>
